<?xml version="1.0" standalone="no"?>
<!DOCTYPE svg PUBLIC "-//W3C//DTD SVG 20010904//EN"
 "http://www.w3.org/TR/2001/REC-SVG-20010904/DTD/svg10.dtd">
<svg version="1.0" xmlns="http://www.w3.org/2000/svg"
 width="512.000000pt" height="512.000000pt" viewBox="0 0 512.000000 512.000000"
 preserveAspectRatio="xMidYMid meet">

<style type="text/css">
	@keyframes lineGrow {
		50%{
			stroke-dashoffset: 0;
		}
        100%{
            stroke-dashoffset: 1500;
        }
	}

	.st0{
		fill:#000;
		stroke:#000;		
        stroke-width:64;
		stroke-miterlimit:10;
		stroke-dasharray: 1500;
		stroke-dashoffset: 1500;
		animation: lineGrow 1s infinite ease-out;
	}

</style>

<g transform="translate(0.000000,512.000000) scale(0.100000,-0.100000)"
fill="#000000" stroke="none">
<path class="st0" d="M1977 5105 c-300 -51 -555 -215 -703 -452 -101 -161 -148 -335 -160
-590 l-7 -153 -36 0 c-86 -1 -174 -76 -206 -176 -25 -80 -18 -200 17 -275 51
-111 128 -170 240 -184 l57 -7 21 -53 c12 -29 49 -95 82 -146 l60 -94 -33 -24
c-67 -49 -175 -168 -205 -226 -18 -33 -40 -85 -49 -116 l-18 -56 -76 -31
c-153 -63 -326 -202 -414 -332 -46 -67 -49 -109 -11 -139 50 -39 73 -26 174
102 57 72 164 159 251 202 71 36 79 35 79 -18 1 -41 48 -158 91 -223 79 -122
213 -220 359 -261 60 -17 114 -18 675 -18 561 0 615 1 675 18 234 66 408 255
452 488 13 68 10 68 158 -4 93 -45 116 -61 200 -146 68 -69 106 -117 133 -169
28 -53 35 -73 25 -77 -7 -2 -517 -97 -1133 -210 -616 -113 -1139 -213 -1163
-221 -51 -19 -85 -65 -103 -139 -6 -27 -15 -54 -19 -58 -5 -6 -839 -166 -868
-167 -3 0 5 583 9 664 3 59 -77 88 -119 44 -33 -36 -42 -128 -42 -444 l0 -292
-110 -21 c-118 -22 -150 -37 -168 -77 -18 -39 -15 -82 33 -463 57 -451 51
-419 90 -458 26 -26 41 -33 73 -33 35 0 64 18 283 180 l243 180 340 0 339 0
-6 -93 c-3 -50 -15 -121 -26 -157 -30 -93 -28 -123 10 -155 l32 -26 181 6
c208 8 249 16 273 51 14 22 15 47 9 200 l-7 174 329 0 329 0 36 -82 c80 -177
168 -298 217 -298 20 0 402 130 438 149 61 32 67 92 16 171 l-35 55 158 3
c116 2 174 -2 218 -13 194 -48 408 12 492 138 69 103 71 192 8 445 l-45 181
27 28 c14 15 37 52 51 82 22 48 24 62 19 135 -3 44 -9 90 -12 101 -6 19 11 24
342 84 193 35 364 71 383 81 74 38 110 104 110 203 0 117 -64 205 -169 230
l-51 12 -11 58 c-7 32 -21 72 -33 89 -27 39 -80 68 -126 68 -56 0 -394 -66
-428 -84 -66 -34 -94 -114 -73 -206 5 -24 8 -46 6 -48 -5 -5 -145 -32 -168
-32 -11 0 -25 19 -42 56 -98 223 -308 407 -554 490 l-94 32 -26 73 c-44 124
-127 236 -224 303 l-55 38 44 60 c24 33 63 100 87 148 l42 87 58 6 c33 4 78
15 100 25 51 23 122 98 147 155 43 98 44 242 0 326 -40 77 -121 131 -200 131
l-40 0 0 104 c0 461 -201 808 -575 991 -209 103 -450 138 -678 100z m421 -164
c391 -97 630 -379 677 -798 l7 -63 -357 0 c-209 0 -364 -4 -374 -10 -29 -15
-45 -64 -30 -92 25 -48 23 -47 402 -48 l359 0 -5 -232 c-2 -128 -8 -243 -12
-256 l-8 -23 -266 3 -266 3 -85 39 c-242 110 -289 111 -465 8 l-80 -47 -303
-3 -302 -3 -11 28 c-7 16 -14 124 -17 256 l-5 227 400 0 c390 0 401 1 427 21
33 26 36 79 6 109 -19 19 -33 20 -421 20 l-402 0 6 93 c25 394 309 705 716
782 103 20 299 13 409 -14z m-1285 -1329 c3 -81 9 -156 13 -165 11 -30 -35
-20 -71 16 -89 89 -68 295 31 297 20 0 21 -6 27 -148z m2199 131 c30 -35 40
-66 40 -124 0 -94 -54 -181 -117 -191 -14 -2 -19 2 -16 12 2 8 6 84 9 168 l4
152 33 0 c18 0 39 -8 47 -17z m-966 -401 c60 -29 134 -56 163 -62 30 -5 152
-10 273 -10 l218 0 -24 -47 c-153 -301 -535 -574 -806 -577 -265 -3 -626 250
-795 556 l-36 67 290 3 291 3 117 62 c144 77 154 77 309 5z m-752 -617 c23
-15 23 -20 29 -223 4 -177 8 -217 27 -277 25 -80 57 -144 94 -194 14 -19 26
-39 26 -44 0 -16 -200 0 -267 21 -203 63 -337 264 -320 476 11 127 95 262 209
339 l53 35 63 -59 c34 -33 73 -66 86 -74z m1352 97 c66 -49 134 -129 167 -200
30 -63 32 -74 32 -177 0 -106 -1 -113 -36 -185 -87 -181 -216 -261 -445 -276
-90 -6 -105 -5 -98 7 5 8 25 39 45 69 20 30 49 89 65 130 27 72 28 85 33 293
l6 218 85 74 c47 41 90 74 96 74 6 1 29 -12 50 -27z m-406 -563 c-25 -84 -89
-181 -143 -217 -74 -50 -103 -57 -232 -57 -107 0 -125 3 -170 25 -105 51 -193
182 -215 320 -12 79 -13 270 -1 270 4 0 38 -13 74 -30 219 -99 413 -98 632 4
l70 32 3 -140 c2 -118 -1 -151 -18 -207z m2113 -66 c3 -5 8 -26 11 -49 l7 -41
-181 -33 c-99 -18 -182 -31 -184 -29 -2 2 -6 25 -10 50 l-7 46 98 18 c54 10
127 23 163 30 79 16 98 17 103 8z m216 -239 c24 -30 28 -91 9 -117 -10 -13
-106 -34 -392 -87 -317 -58 -386 -68 -417 -60 -30 8 -81 2 -285 -36 -332 -61
-307 -62 -318 9 -5 31 -7 59 -5 61 5 5 1337 254 1366 255 12 1 30 -10 42 -25z
m-1551 -316 c9 -54 8 -64 -5 -73 -74 -47 -110 -114 -100 -185 3 -22 4 -40 4
-40 -1 0 -108 -20 -237 -44 -129 -24 -238 -41 -241 -38 -3 4 -16 62 -28 130
-35 196 -38 194 319 261 146 27 268 50 271 50 3 1 11 -27 17 -61z m-774 -106
c-3 -16 6 -93 21 -171 14 -79 24 -146 21 -148 -2 -3 -135 -54 -294 -114 l-290
-109 -274 -48 c-150 -26 -274 -45 -276 -42 -4 10 106 462 115 471 6 6 911 181
975 188 4 1 5 -12 2 -27z m1513 -33 c6 -24 12 -68 12 -97 1 -46 -3 -56 -31
-86 -32 -33 -38 -35 -273 -80 -132 -26 -255 -46 -274 -46 -25 0 -42 9 -70 38
-32 31 -39 48 -50 110 -7 40 -10 76 -6 80 7 8 655 131 670 128 6 -1 15 -22 22
-47z m-782 -336 c28 -42 66 -74 118 -98 l48 -23 3 -208 c1 -115 6 -219 10
-231 l8 -23 -120 0 c-83 0 -123 4 -130 13 -27 34 -210 542 -199 554 5 5 196
41 223 42 13 1 29 -10 39 -26z m-1925 -25 c0 -7 -8 -44 -18 -82 l-18 -70 -489
-362 c-270 -200 -495 -363 -500 -364 -11 0 -99 669 -90 679 5 5 1063 206 1103
210 6 0 12 -5 12 -11z m1537 -103 c13 -44 21 -85 19 -91 -2 -6 -25 -17 -51
-24 -73 -21 -95 -71 -53 -125 22 -29 30 -29 134 -9 31 6 32 4 53 -50 12 -31
21 -58 21 -60 0 -2 -20 -9 -45 -16 -44 -12 -85 -49 -85 -76 0 -27 23 -62 47
-73 20 -9 38 -8 84 5 33 9 61 15 63 13 8 -11 101 -205 101 -213 0 -4 -62 -30
-137 -56 l-138 -48 -21 29 c-64 90 -217 457 -272 654 -44 159 -45 147 15 169
58 22 204 55 228 53 9 -2 23 -32 37 -82z m1102 48 c61 -232 73 -292 69 -353
-4 -80 -28 -119 -96 -152 -57 -28 -189 -37 -258 -18 -52 15 -100 64 -109 113
-8 40 -2 363 6 371 4 5 284 61 371 75 4 0 12 -16 17 -36z m-1539 -180 c13 -49
40 -139 61 -200 22 -62 39 -115 39 -118 0 -3 -133 -5 -295 -5 -228 0 -297 3
-299 13 -3 6 -7 62 -9 124 l-6 111 47 7 c26 4 133 40 237 80 105 40 193 73
196 74 3 1 16 -38 29 -86z m-656 -145 c6 -54 28 -589 24 -593 -2 -1 -49 -5
-106 -7 -80 -4 -102 -2 -98 8 2 6 10 49 17 95 19 132 2 370 -36 489 -5 15 7
20 82 32 49 9 93 16 100 17 7 0 14 -17 17 -41z m-454 11 c16 -12 46 -25 67
-28 38 -6 38 -6 55 -81 9 -41 16 -76 14 -77 -2 -2 -104 -2 -227 -1 l-224 3
135 102 c74 56 139 102 143 102 4 1 21 -9 37 -20z"/>
<path class="st0" d="M1581 3764 c-27 -34 -26 -57 2 -89 18 -21 43 -31 136 -51 104 -22
116 -23 137 -9 46 30 54 85 16 118 -19 17 -187 57 -237 57 -24 0 -39 -7 -54
-26z"/>
<path class="st0" d="M2695 3785 c-5 -2 -45 -11 -89 -21 -90 -19 -116 -39 -116 -87 0 -34
18 -58 51 -70 14 -5 104 11 217 38 59 14 81 83 39 123 -21 20 -70 28 -102 17z"/>
</g>
</svg>
